<?xml version="1.0" encoding="UTF-8" standalone="no"?>
<svg
   xmlns:dc="http://purl.org/dc/elements/1.1/"
   xmlns:cc="http://creativecommons.org/ns#"
   xmlns:rdf="http://www.w3.org/1999/02/22-rdf-syntax-ns#"
   xmlns:svg="http://www.w3.org/2000/svg"
   xmlns="http://www.w3.org/2000/svg"
   xmlns:sodipodi="http://sodipodi.sourceforge.net/DTD/sodipodi-0.dtd"
   xmlns:inkscape="http://www.inkscape.org/namespaces/inkscape"
   width="900px"
   height="540px"
   viewBox="0 0  900 540"
   preserveAspectRatio="xMidYMid meet"
   version="1.1"
   id="svg3863"
   sodipodi:docname="emp.svg"
   inkscape:version="0.92.4 (5da689c313, 2019-01-14)">
  <title
     id="title3871">emploi</title>
  <metadata
     id="metadata3869">
    <rdf:RDF>
      <cc:Work
         rdf:about="">
        <dc:format>image/svg+xml</dc:format>
        <dc:type
           rdf:resource="http://purl.org/dc/dcmitype/StillImage" />
        <dc:title>emploi</dc:title>
        <dc:creator>
          <cc:Agent>
            <dc:title>OUSMANE MOUSSA Ismael</dc:title>
          </cc:Agent>
        </dc:creator>
      </cc:Work>
    </rdf:RDF>
  </metadata>
  <defs
     id="defs3867" />
  <sodipodi:namedview
     pagecolor="#ffffff"
     bordercolor="#666666"
     borderopacity="1"
     objecttolerance="10"
     gridtolerance="10"
     guidetolerance="10"
     inkscape:pageopacity="0"
     inkscape:pageshadow="2"
     inkscape:window-width="1366"
     inkscape:window-height="715"
     id="namedview3865"
     showgrid="false"
     inkscape:zoom="0.91"
     inkscape:cx="450"
     inkscape:cy="270"
     inkscape:window-x="-8"
     inkscape:window-y="-8"
     inkscape:window-maximized="1"
     inkscape:current-layer="svg3863" />
  <rect
     id="svgEditorBackground"
     x="0"
     y="0"
     width="900"
     height="540"
     style="fill: none; stroke: none;" />
  <rect
     x="129.02512"
     y="0.96432739"
     style="fill:#0000ff;stroke:#000000;stroke-width:0.84651959px"
     id="e1_rectangle"
     width="644.13416"
     height="540.07135" />
  <rect
     x="257.52548"
     y="38.525391"
     style="fill:#0000ff;stroke:#ffffff;stroke-width:4.61348009px"
     id="e2_rectangle"
     width="398.15741"
     height="331.47934" />
  <rect
     x="292"
     y="112"
     style="fill:blue;stroke:white;stroke-width:1px;"
     id="e3_rectangle"
     width="222"
     height="51"
     transform="matrix(1.5551 0 0 1.5551 -168.546 -106.073)" />
  <line
     id="e4_line"
     x1="403"
     y1="112"
     x2="403"
     y2="162"
     style="stroke:white;fill:none;stroke-width:1px;"
     transform="matrix(1.5551 0 0 1.5551 -168.546 -106.073)" />
  <line
     id="e5_line"
     x1="418"
     y1="126"
     x2="497"
     y2="126"
     style="stroke:white;fill:none;stroke-width:1px;"
     transform="matrix(1.5551 0 0 1.5551 -168.546 -106.073)" />
  <line
     id="e2_line"
     x1="420"
     y1="147"
     x2="499"
     y2="147"
     style="stroke:white;fill:none;stroke-width:1px;"
     transform="matrix(1.5551 0 0 1.5551 -168.546 -106.073)" />
  <line
     id="e1_line"
     x1="307"
     y1="126"
     x2="386"
     y2="126"
     style="stroke:white;fill:none;stroke-width:1px;"
     transform="matrix(1.5551 0 0 1.5551 -168.546 -106.073)" />
  <line
     id="e3_line"
     x1="309"
     y1="147"
     x2="388"
     y2="147"
     style="stroke:white;fill:none;stroke-width:1px;"
     transform="matrix(1.5551 0 0 1.5551 -168.546 -106.073)" />
  <rect
     x="293"
     y="177"
     style="fill:blue;stroke:white;stroke-width:1px;"
     id="e4_rectangle"
     width="222"
     height="51"
     transform="matrix(1.5551 0 0 1.5551 -168.546 -106.073)" />
  <line
     id="e6_line"
     x1="404"
     y1="178"
     x2="404"
     y2="227"
     style="stroke:white;fill:none;stroke-width:1px;"
     transform="matrix(1.5551 0 0 1.5551 -168.546 -106.073)" />
  <line
     id="e7_line"
     x1="419"
     y1="191"
     x2="498"
     y2="191"
     style="stroke:white;fill:none;stroke-width:1px;"
     transform="matrix(1.5551 0 0 1.5551 -168.546 -106.073)" />
  <line
     id="e8_line"
     x1="421"
     y1="212"
     x2="500"
     y2="212"
     style="stroke:white;fill:none;stroke-width:1px;"
     transform="matrix(1.5551 0 0 1.5551 -168.546 -106.073)" />
  <line
     id="e9_line"
     x1="308"
     y1="191"
     x2="387"
     y2="191"
     style="stroke:white;fill:none;stroke-width:1px;"
     transform="matrix(1.5551 0 0 1.5551 -168.546 -106.073)" />
  <line
     id="e10_line"
     x1="310"
     y1="213"
     x2="389"
     y2="213"
     style="stroke:white;fill:none;stroke-width:1px;"
     transform="matrix(1.5551 0 0 1.5551 -168.546 -106.073)" />
  <rect
     x="292"
     y="242"
     style="fill:blue;stroke:white;stroke-width:1px;"
     id="e5_rectangle"
     width="222"
     height="51"
     transform="matrix(1.5551 0 0 1.5551 -168.546 -106.073)" />
  <line
     id="e11_line"
     x1="403"
     y1="242"
     x2="403"
     y2="292"
     style="stroke:white;fill:none;stroke-width:1px;"
     transform="matrix(1.5551 0 0 1.5551 -168.546 -106.073)" />
  <line
     id="e12_line"
     x1="418"
     y1="256"
     x2="497"
     y2="256"
     style="stroke:white;fill:none;stroke-width:1px;"
     transform="matrix(1.5551 0 0 1.5551 -168.546 -106.073)" />
  <line
     id="e13_line"
     x1="420"
     y1="277"
     x2="499"
     y2="277"
     style="stroke:white;fill:none;stroke-width:1px;"
     transform="matrix(1.5551 0 0 1.5551 -168.546 -106.073)" />
  <line
     id="e14_line"
     x1="307"
     y1="256"
     x2="386"
     y2="256"
     style="stroke:white;fill:none;stroke-width:1px;"
     transform="matrix(1.5551 0 0 1.5551 -168.546 -106.073)" />
  <line
     id="e15_line"
     x1="309"
     y1="278"
     x2="388"
     y2="278"
     style="stroke:white;fill:none;stroke-width:1px;"
     transform="matrix(1.5551 0 0 1.5551 -168.546 -106.073)" />
  <text
     style="font-size:74.58422089px;font-family:Arial;fill:#ffffff;stroke-width:1.49168444"
     x="352.55457"
     y="416.44131"
     id="e6_texte"
     transform="scale(0.93466521,1.0699018)">
    <tspan
       x="352.55457"
       id="tspan3858"
       style="stroke-width:1.49168444">EMPLOI</tspan>
  </text>
  <text
     style="font-size:72.53407288px;font-family:Arial;fill:#ffffff;stroke-width:1.45068157"
     x="312.58066"
     y="475.29803"
     id="e2_texte"
     transform="scale(0.92603066,1.0798779)">
    <tspan
       x="312.58066"
       id="e2_tspan"
       style="stroke-width:1.45068157">DU TEMPS</tspan>
  </text>
</svg>
